<svg width="100%" viewBox="0 0 680 490" xmlns="http://www.w3.org/2000/svg"><defs><mask id="imagine-text-gaps-lp5ate" maskUnits="userSpaceOnUse"><rect x="0" y="0" width="680" height="490" fill="white"/><rect x="-9.037427425384521" y="-37.870208740234375" width="19.286986351013184" height="16.46763324737549" fill="black" rx="2"/><rect x="-18.396345138549805" y="4.129790306091309" width="116.79269409179688" height="16.46763324737549" fill="black" rx="2"/><rect x="253.6065673828125" y="32.05185317993164" width="172.78683471679688" height="18.545571327209473" fill="black" rx="2"/><rect x="181.0518798828125" y="448.1297912597656" width="316.41650390625" height="16.46763324737549" fill="black" rx="2"/></mask></defs>


<!-- Fond parchemin -->
<rect width="680" height="480" fill="#f5f0e8" style="fill:rgb(245, 240, 232);stroke:none;color:rgb(251, 251, 254);stroke-width:1px;stroke-linecap:butt;stroke-linejoin:miter;opacity:1;font-family:&quot;Anthropic Sans&quot;, -apple-system, BlinkMacSystemFont, &quot;Segoe UI&quot;, sans-serif;font-size:16px;font-weight:400;text-anchor:start;dominant-baseline:auto"/>

<!-- Cadre esquissé (irrégulier) -->
<path stroke-width="1.2" d="M28,22 L655,25 L652,458 L30,455 Z" stroke-dasharray="4,2" mask="url(#imagine-text-gaps-lp5ate)" style="fill:none;stroke:rgb(26, 26, 26);color:rgb(251, 251, 254);stroke-width:1.2px;stroke-dasharray:4px, 2px;stroke-linecap:round;stroke-linejoin:round;opacity:1;font-family:&quot;Anthropic Sans&quot;, -apple-system, BlinkMacSystemFont, &quot;Segoe UI&quot;, sans-serif;font-size:16px;font-weight:400;text-anchor:start;dominant-baseline:auto"/>

<!-- Mer / fond eau -->
<rect x="30" y="26" width="622" height="428" style="fill:rgb(232, 228, 220);stroke:none;color:rgb(251, 251, 254);stroke-width:1px;stroke-linecap:butt;stroke-linejoin:miter;opacity:1;font-family:&quot;Anthropic Sans&quot;, -apple-system, BlinkMacSystemFont, &quot;Segoe UI&quot;, sans-serif;font-size:16px;font-weight:400;text-anchor:start;dominant-baseline:auto"/>

<!-- Vagues stylisées -->
<g stroke-width="0.5" opacity="0.3" style="fill:none;stroke:rgb(26, 26, 26);color:rgb(251, 251, 254);stroke-width:0.5px;stroke-linecap:round;stroke-linejoin:miter;opacity:0.3;font-family:&quot;Anthropic Sans&quot;, -apple-system, BlinkMacSystemFont, &quot;Segoe UI&quot;, sans-serif;font-size:16px;font-weight:400;text-anchor:start;dominant-baseline:auto">
  <path d="M50,60 Q70,55 90,60 Q110,65 130,60" style="fill:none;stroke:rgb(26, 26, 26);color:rgb(251, 251, 254);stroke-width:0.5px;stroke-linecap:round;stroke-linejoin:miter;opacity:1;font-family:&quot;Anthropic Sans&quot;, -apple-system, BlinkMacSystemFont, &quot;Segoe UI&quot;, sans-serif;font-size:16px;font-weight:400;text-anchor:start;dominant-baseline:auto"/>
  <path d="M55,75 Q80,70 105,75 Q130,80 155,75" style="fill:none;stroke:rgb(26, 26, 26);color:rgb(251, 251, 254);stroke-width:0.5px;stroke-linecap:round;stroke-linejoin:miter;opacity:1;font-family:&quot;Anthropic Sans&quot;, -apple-system, BlinkMacSystemFont, &quot;Segoe UI&quot;, sans-serif;font-size:16px;font-weight:400;text-anchor:start;dominant-baseline:auto"/>
  <path d="M580,80 Q600,75 620,80 Q640,85 660,80" style="fill:none;stroke:rgb(26, 26, 26);color:rgb(251, 251, 254);stroke-width:0.5px;stroke-linecap:round;stroke-linejoin:miter;opacity:1;font-family:&quot;Anthropic Sans&quot;, -apple-system, BlinkMacSystemFont, &quot;Segoe UI&quot;, sans-serif;font-size:16px;font-weight:400;text-anchor:start;dominant-baseline:auto"/>
  <path d="M570,95 Q595,90 620,95" style="fill:none;stroke:rgb(26, 26, 26);color:rgb(251, 251, 254);stroke-width:0.5px;stroke-linecap:round;stroke-linejoin:miter;opacity:1;font-family:&quot;Anthropic Sans&quot;, -apple-system, BlinkMacSystemFont, &quot;Segoe UI&quot;, sans-serif;font-size:16px;font-weight:400;text-anchor:start;dominant-baseline:auto"/>
  <path d="M60,380 Q85,375 110,380 Q135,385 160,380" style="fill:none;stroke:rgb(26, 26, 26);color:rgb(251, 251, 254);stroke-width:0.5px;stroke-linecap:round;stroke-linejoin:miter;opacity:1;font-family:&quot;Anthropic Sans&quot;, -apple-system, BlinkMacSystemFont, &quot;Segoe UI&quot;, sans-serif;font-size:16px;font-weight:400;text-anchor:start;dominant-baseline:auto"/>
  <path d="M580,370 Q605,365 630,370 Q650,375 670,370" style="fill:none;stroke:rgb(26, 26, 26);color:rgb(251, 251, 254);stroke-width:0.5px;stroke-linecap:round;stroke-linejoin:miter;opacity:1;font-family:&quot;Anthropic Sans&quot;, -apple-system, BlinkMacSystemFont, &quot;Segoe UI&quot;, sans-serif;font-size:16px;font-weight:400;text-anchor:start;dominant-baseline:auto"/>
  <path d="M580,385 Q600,380 620,385" style="fill:none;stroke:rgb(26, 26, 26);color:rgb(251, 251, 254);stroke-width:0.5px;stroke-linecap:round;stroke-linejoin:miter;opacity:1;font-family:&quot;Anthropic Sans&quot;, -apple-system, BlinkMacSystemFont, &quot;Segoe UI&quot;, sans-serif;font-size:16px;font-weight:400;text-anchor:start;dominant-baseline:auto"/>
</g>

<!-- CONTINENT PRINCIPAL (grand territoire central-gauche) -->
<path stroke-width="1.4" d="M160,140 Q175,128 195,132 Q215,120 240,125 Q258,115 275,122 Q295,110 318,118 Q338,108 355,120 Q370,112 385,125 Q400,118 415,130 Q428,122 440,138 Q452,130 462,148 Q472,140 478,158 Q488,150 492,170 Q500,162 502,182 Q505,195 498,210 Q505,225 498,242 Q502,258 492,272 Q496,288 485,300 Q488,315 475,325 Q478,340 462,348 Q460,362 445,368 Q440,380 425,382 Q415,395 398,390 Q382,402 365,395 Q348,405 330,396 Q312,405 295,395 Q275,402 258,390 Q240,398 225,384 Q208,390 198,374 Q182,376 175,360 Q160,355 158,338 Q145,328 148,312 Q135,300 140,285 Q128,272 135,255 Q122,240 130,222 Q118,205 128,188 Q118,170 132,158 Q148,152 160,140 Z" style="fill:rgb(240, 236, 228);stroke:rgb(26, 26, 26);color:rgb(251, 251, 254);stroke-width:1.4px;stroke-linecap:round;stroke-linejoin:round;opacity:1;font-family:&quot;Anthropic Sans&quot;, -apple-system, BlinkMacSystemFont, &quot;Segoe UI&quot;, sans-serif;font-size:16px;font-weight:400;text-anchor:start;dominant-baseline:auto"/>

<!-- Hachures relief centre-continent -->
<g stroke-width="0.6" opacity="0.5" style="fill:none;stroke:rgb(26, 26, 26);color:rgb(251, 251, 254);stroke-width:0.6px;stroke-linecap:round;stroke-linejoin:miter;opacity:0.5;font-family:&quot;Anthropic Sans&quot;, -apple-system, BlinkMacSystemFont, &quot;Segoe UI&quot;, sans-serif;font-size:16px;font-weight:400;text-anchor:start;dominant-baseline:auto">
  <path d="M280,185 L285,195 L278,205 L285,215 L280,225" style="fill:none;stroke:rgb(26, 26, 26);color:rgb(251, 251, 254);stroke-width:0.6px;stroke-linecap:round;stroke-linejoin:miter;opacity:1;font-family:&quot;Anthropic Sans&quot;, -apple-system, BlinkMacSystemFont, &quot;Segoe UI&quot;, sans-serif;font-size:16px;font-weight:400;text-anchor:start;dominant-baseline:auto"/>
  <path d="M295,180 L302,192 L295,202 L300,214 L295,224" style="fill:none;stroke:rgb(26, 26, 26);color:rgb(251, 251, 254);stroke-width:0.6px;stroke-linecap:round;stroke-linejoin:miter;opacity:1;font-family:&quot;Anthropic Sans&quot;, -apple-system, BlinkMacSystemFont, &quot;Segoe UI&quot;, sans-serif;font-size:16px;font-weight:400;text-anchor:start;dominant-baseline:auto"/>
  <path d="M310,175 L318,188 L312,200 L318,212 L312,222" style="fill:none;stroke:rgb(26, 26, 26);color:rgb(251, 251, 254);stroke-width:0.6px;stroke-linecap:round;stroke-linejoin:miter;opacity:1;font-family:&quot;Anthropic Sans&quot;, -apple-system, BlinkMacSystemFont, &quot;Segoe UI&quot;, sans-serif;font-size:16px;font-weight:400;text-anchor:start;dominant-baseline:auto"/>
  <path d="M325,178 L330,190 L325,202 L332,215 L326,226" style="fill:none;stroke:rgb(26, 26, 26);color:rgb(251, 251, 254);stroke-width:0.6px;stroke-linecap:round;stroke-linejoin:miter;opacity:1;font-family:&quot;Anthropic Sans&quot;, -apple-system, BlinkMacSystemFont, &quot;Segoe UI&quot;, sans-serif;font-size:16px;font-weight:400;text-anchor:start;dominant-baseline:auto"/>
  <path d="M272,200 L278,210 L272,222 L278,232" style="fill:none;stroke:rgb(26, 26, 26);color:rgb(251, 251, 254);stroke-width:0.6px;stroke-linecap:round;stroke-linejoin:miter;opacity:1;font-family:&quot;Anthropic Sans&quot;, -apple-system, BlinkMacSystemFont, &quot;Segoe UI&quot;, sans-serif;font-size:16px;font-weight:400;text-anchor:start;dominant-baseline:auto"/>
  <path d="M340,180 L345,192 L340,204 L346,216" style="fill:none;stroke:rgb(26, 26, 26);color:rgb(251, 251, 254);stroke-width:0.6px;stroke-linecap:round;stroke-linejoin:miter;opacity:1;font-family:&quot;Anthropic Sans&quot;, -apple-system, BlinkMacSystemFont, &quot;Segoe UI&quot;, sans-serif;font-size:16px;font-weight:400;text-anchor:start;dominant-baseline:auto"/>
  <path d="M288,235 L294,245 L288,255 L294,265" style="fill:none;stroke:rgb(26, 26, 26);color:rgb(251, 251, 254);stroke-width:0.6px;stroke-linecap:round;stroke-linejoin:miter;opacity:1;font-family:&quot;Anthropic Sans&quot;, -apple-system, BlinkMacSystemFont, &quot;Segoe UI&quot;, sans-serif;font-size:16px;font-weight:400;text-anchor:start;dominant-baseline:auto"/>
  <path d="M305,238 L310,248 L305,258 L310,268" style="fill:none;stroke:rgb(26, 26, 26);color:rgb(251, 251, 254);stroke-width:0.6px;stroke-linecap:round;stroke-linejoin:miter;opacity:1;font-family:&quot;Anthropic Sans&quot;, -apple-system, BlinkMacSystemFont, &quot;Segoe UI&quot;, sans-serif;font-size:16px;font-weight:400;text-anchor:start;dominant-baseline:auto"/>
  <path d="M320,235 L326,246 L320,256 L326,266" style="fill:none;stroke:rgb(26, 26, 26);color:rgb(251, 251, 254);stroke-width:0.6px;stroke-linecap:round;stroke-linejoin:miter;opacity:1;font-family:&quot;Anthropic Sans&quot;, -apple-system, BlinkMacSystemFont, &quot;Segoe UI&quot;, sans-serif;font-size:16px;font-weight:400;text-anchor:start;dominant-baseline:auto"/>
</g>

<!-- Forêt nord-est continent (arbres stylisés) -->
<g stroke-width="1.0" style="fill:none;stroke:rgb(26, 26, 26);color:rgb(251, 251, 254);stroke-width:1px;stroke-linecap:round;stroke-linejoin:round;opacity:1;font-family:&quot;Anthropic Sans&quot;, -apple-system, BlinkMacSystemFont, &quot;Segoe UI&quot;, sans-serif;font-size:16px;font-weight:400;text-anchor:start;dominant-baseline:auto">
  <path d="M350,145 L350,165 M342,155 L350,145 L358,155" style="fill:none;stroke:rgb(26, 26, 26);color:rgb(251, 251, 254);stroke-width:1px;stroke-linecap:round;stroke-linejoin:round;opacity:1;font-family:&quot;Anthropic Sans&quot;, -apple-system, BlinkMacSystemFont, &quot;Segoe UI&quot;, sans-serif;font-size:16px;font-weight:400;text-anchor:start;dominant-baseline:auto"/>
  <path d="M365,140 L365,160 M357,150 L365,140 L373,150" style="fill:none;stroke:rgb(26, 26, 26);color:rgb(251, 251, 254);stroke-width:1px;stroke-linecap:round;stroke-linejoin:round;opacity:1;font-family:&quot;Anthropic Sans&quot;, -apple-system, BlinkMacSystemFont, &quot;Segoe UI&quot;, sans-serif;font-size:16px;font-weight:400;text-anchor:start;dominant-baseline:auto"/>
  <path d="M380,148 L380,168 M372,158 L380,148 L388,158" style="fill:none;stroke:rgb(26, 26, 26);color:rgb(251, 251, 254);stroke-width:1px;stroke-linecap:round;stroke-linejoin:round;opacity:1;font-family:&quot;Anthropic Sans&quot;, -apple-system, BlinkMacSystemFont, &quot;Segoe UI&quot;, sans-serif;font-size:16px;font-weight:400;text-anchor:start;dominant-baseline:auto"/>
  <path d="M358,160 L358,178 M351,169 L358,160 L365,169" style="fill:none;stroke:rgb(26, 26, 26);color:rgb(251, 251, 254);stroke-width:1px;stroke-linecap:round;stroke-linejoin:round;opacity:1;font-family:&quot;Anthropic Sans&quot;, -apple-system, BlinkMacSystemFont, &quot;Segoe UI&quot;, sans-serif;font-size:16px;font-weight:400;text-anchor:start;dominant-baseline:auto"/>
  <path d="M372,155 L372,173 M365,164 L372,155 L379,164" style="fill:none;stroke:rgb(26, 26, 26);color:rgb(251, 251, 254);stroke-width:1px;stroke-linecap:round;stroke-linejoin:round;opacity:1;font-family:&quot;Anthropic Sans&quot;, -apple-system, BlinkMacSystemFont, &quot;Segoe UI&quot;, sans-serif;font-size:16px;font-weight:400;text-anchor:start;dominant-baseline:auto"/>
</g>

<!-- Forêt sud-ouest continent -->
<g stroke-width="1.0" style="fill:none;stroke:rgb(26, 26, 26);color:rgb(251, 251, 254);stroke-width:1px;stroke-linecap:round;stroke-linejoin:round;opacity:1;font-family:&quot;Anthropic Sans&quot;, -apple-system, BlinkMacSystemFont, &quot;Segoe UI&quot;, sans-serif;font-size:16px;font-weight:400;text-anchor:start;dominant-baseline:auto">
  <path d="M210,330 L210,350 M202,340 L210,330 L218,340" style="fill:none;stroke:rgb(26, 26, 26);color:rgb(251, 251, 254);stroke-width:1px;stroke-linecap:round;stroke-linejoin:round;opacity:1;font-family:&quot;Anthropic Sans&quot;, -apple-system, BlinkMacSystemFont, &quot;Segoe UI&quot;, sans-serif;font-size:16px;font-weight:400;text-anchor:start;dominant-baseline:auto"/>
  <path d="M225,325 L225,345 M217,335 L225,325 L233,335" style="fill:none;stroke:rgb(26, 26, 26);color:rgb(251, 251, 254);stroke-width:1px;stroke-linecap:round;stroke-linejoin:round;opacity:1;font-family:&quot;Anthropic Sans&quot;, -apple-system, BlinkMacSystemFont, &quot;Segoe UI&quot;, sans-serif;font-size:16px;font-weight:400;text-anchor:start;dominant-baseline:auto"/>
  <path d="M240,332 L240,352 M232,342 L240,332 L248,342" style="fill:none;stroke:rgb(26, 26, 26);color:rgb(251, 251, 254);stroke-width:1px;stroke-linecap:round;stroke-linejoin:round;opacity:1;font-family:&quot;Anthropic Sans&quot;, -apple-system, BlinkMacSystemFont, &quot;Segoe UI&quot;, sans-serif;font-size:16px;font-weight:400;text-anchor:start;dominant-baseline:auto"/>
  <path d="M218,348 L218,366 M211,357 L218,348 L225,357" style="fill:none;stroke:rgb(26, 26, 26);color:rgb(251, 251, 254);stroke-width:1px;stroke-linecap:round;stroke-linejoin:round;opacity:1;font-family:&quot;Anthropic Sans&quot;, -apple-system, BlinkMacSystemFont, &quot;Segoe UI&quot;, sans-serif;font-size:16px;font-weight:400;text-anchor:start;dominant-baseline:auto"/>
  <path d="M232,345 L232,362 M225,354 L232,345 L239,354" style="fill:none;stroke:rgb(26, 26, 26);color:rgb(251, 251, 254);stroke-width:1px;stroke-linecap:round;stroke-linejoin:round;opacity:1;font-family:&quot;Anthropic Sans&quot;, -apple-system, BlinkMacSystemFont, &quot;Segoe UI&quot;, sans-serif;font-size:16px;font-weight:400;text-anchor:start;dominant-baseline:auto"/>
</g>

<!-- ÎLE NORD-EST -->
<path stroke-width="1.2" d="M510,80 Q525,72 542,78 Q558,70 568,82 Q578,76 582,92 Q590,100 584,115 Q588,128 578,138 Q582,150 568,155 Q558,162 542,158 Q525,162 515,150 Q502,148 500,132 Q492,120 498,105 Q492,92 502,84 Z" style="fill:rgb(240, 236, 228);stroke:rgb(26, 26, 26);color:rgb(251, 251, 254);stroke-width:1.2px;stroke-linecap:round;stroke-linejoin:round;opacity:1;font-family:&quot;Anthropic Sans&quot;, -apple-system, BlinkMacSystemFont, &quot;Segoe UI&quot;, sans-serif;font-size:16px;font-weight:400;text-anchor:start;dominant-baseline:auto"/>
<g stroke-width="0.5" opacity="0.45" style="fill:none;stroke:rgb(26, 26, 26);color:rgb(251, 251, 254);stroke-width:0.5px;stroke-linecap:round;stroke-linejoin:miter;opacity:0.45;font-family:&quot;Anthropic Sans&quot;, -apple-system, BlinkMacSystemFont, &quot;Segoe UI&quot;, sans-serif;font-size:16px;font-weight:400;text-anchor:start;dominant-baseline:auto">
  <path d="M525,100 L530,110 L525,120 L530,130" style="fill:none;stroke:rgb(26, 26, 26);color:rgb(251, 251, 254);stroke-width:0.5px;stroke-linecap:round;stroke-linejoin:miter;opacity:1;font-family:&quot;Anthropic Sans&quot;, -apple-system, BlinkMacSystemFont, &quot;Segoe UI&quot;, sans-serif;font-size:16px;font-weight:400;text-anchor:start;dominant-baseline:auto"/>
  <path d="M540,96 L545,108 L540,118 L545,128" style="fill:none;stroke:rgb(26, 26, 26);color:rgb(251, 251, 254);stroke-width:0.5px;stroke-linecap:round;stroke-linejoin:miter;opacity:1;font-family:&quot;Anthropic Sans&quot;, -apple-system, BlinkMacSystemFont, &quot;Segoe UI&quot;, sans-serif;font-size:16px;font-weight:400;text-anchor:start;dominant-baseline:auto"/>
  <path d="M555,102 L558,112 L555,122" style="fill:none;stroke:rgb(26, 26, 26);color:rgb(251, 251, 254);stroke-width:0.5px;stroke-linecap:round;stroke-linejoin:miter;opacity:1;font-family:&quot;Anthropic Sans&quot;, -apple-system, BlinkMacSystemFont, &quot;Segoe UI&quot;, sans-serif;font-size:16px;font-weight:400;text-anchor:start;dominant-baseline:auto"/>
</g>

<!-- ÎLE SUD (petite) -->
<path stroke-width="1.1" d="M490,380 Q505,372 518,378 Q530,372 535,385 Q540,395 530,405 Q518,412 505,408 Q492,410 488,398 Q482,388 490,380 Z" style="fill:rgb(240, 236, 228);stroke:rgb(26, 26, 26);color:rgb(251, 251, 254);stroke-width:1.1px;stroke-linecap:round;stroke-linejoin:round;opacity:1;font-family:&quot;Anthropic Sans&quot;, -apple-system, BlinkMacSystemFont, &quot;Segoe UI&quot;, sans-serif;font-size:16px;font-weight:400;text-anchor:start;dominant-baseline:auto"/>

<!-- ARCHIPEL OUEST (3 petites îles) -->
<path stroke-width="1.0" d="M65,180 Q75,174 85,180 Q92,188 85,198 Q75,204 65,198 Q58,190 65,180 Z" style="fill:rgb(240, 236, 228);stroke:rgb(26, 26, 26);color:rgb(251, 251, 254);stroke-width:1px;stroke-linecap:round;stroke-linejoin:round;opacity:1;font-family:&quot;Anthropic Sans&quot;, -apple-system, BlinkMacSystemFont, &quot;Segoe UI&quot;, sans-serif;font-size:16px;font-weight:400;text-anchor:start;dominant-baseline:auto"/>
<path stroke-width="1.0" d="M55,225 Q62,218 72,222 Q80,230 72,240 Q62,245 55,238 Q48,230 55,225 Z" style="fill:rgb(240, 236, 228);stroke:rgb(26, 26, 26);color:rgb(251, 251, 254);stroke-width:1px;stroke-linecap:round;stroke-linejoin:round;opacity:1;font-family:&quot;Anthropic Sans&quot;, -apple-system, BlinkMacSystemFont, &quot;Segoe UI&quot;, sans-serif;font-size:16px;font-weight:400;text-anchor:start;dominant-baseline:auto"/>
<path stroke-width="1.0" d="M75,260 Q83,254 92,258 Q98,266 92,275 Q83,280 75,274 Q68,267 75,260 Z" style="fill:rgb(240, 236, 228);stroke:rgb(26, 26, 26);color:rgb(251, 251, 254);stroke-width:1px;stroke-linecap:round;stroke-linejoin:round;opacity:1;font-family:&quot;Anthropic Sans&quot;, -apple-system, BlinkMacSystemFont, &quot;Segoe UI&quot;, sans-serif;font-size:16px;font-weight:400;text-anchor:start;dominant-baseline:auto"/>

<!-- Rivière principale (continent) -->
<path stroke-width="1.1" stroke-dasharray="none" d="M310,175 Q318,200 308,225 Q298,250 305,275 Q312,295 300,318 Q290,338 298,355" style="fill:none;stroke:rgb(26, 26, 26);color:rgb(251, 251, 254);stroke-width:1.1px;stroke-linecap:round;stroke-linejoin:round;opacity:1;font-family:&quot;Anthropic Sans&quot;, -apple-system, BlinkMacSystemFont, &quot;Segoe UI&quot;, sans-serif;font-size:16px;font-weight:400;text-anchor:start;dominant-baseline:auto"/>

<!-- Rivière secondaire -->
<path stroke-width="0.8" d="M355,195 Q345,215 350,238 Q355,260 342,278" style="fill:none;stroke:rgb(26, 26, 26);color:rgb(251, 251, 254);stroke-width:0.8px;stroke-linecap:round;stroke-linejoin:round;opacity:1;font-family:&quot;Anthropic Sans&quot;, -apple-system, BlinkMacSystemFont, &quot;Segoe UI&quot;, sans-serif;font-size:16px;font-weight:400;text-anchor:start;dominant-baseline:auto"/>

<!-- Rose des vents (coin bas droit) -->
<g transform="translate(600,400)" stroke-width="1.0" style="fill:none;stroke:rgb(26, 26, 26);color:rgb(251, 251, 254);stroke-width:1px;stroke-linecap:round;stroke-linejoin:round;opacity:1;font-family:&quot;Anthropic Sans&quot;, -apple-system, BlinkMacSystemFont, &quot;Segoe UI&quot;, sans-serif;font-size:16px;font-weight:400;text-anchor:start;dominant-baseline:auto">
  <line x1="0" y1="-22" x2="0" y2="22" mask="url(#imagine-text-gaps-lp5ate)" style="fill:none;stroke:rgb(26, 26, 26);color:rgb(251, 251, 254);stroke-width:1px;stroke-linecap:round;stroke-linejoin:round;opacity:1;font-family:&quot;Anthropic Sans&quot;, -apple-system, BlinkMacSystemFont, &quot;Segoe UI&quot;, sans-serif;font-size:16px;font-weight:400;text-anchor:start;dominant-baseline:auto"/>
  <line x1="-22" y1="0" x2="22" y2="0" style="fill:none;stroke:rgb(26, 26, 26);color:rgb(251, 251, 254);stroke-width:1px;stroke-linecap:round;stroke-linejoin:round;opacity:1;font-family:&quot;Anthropic Sans&quot;, -apple-system, BlinkMacSystemFont, &quot;Segoe UI&quot;, sans-serif;font-size:16px;font-weight:400;text-anchor:start;dominant-baseline:auto"/>
  <line x1="-15" y1="-15" x2="15" y2="15" stroke-width="0.6" mask="url(#imagine-text-gaps-lp5ate)" style="fill:none;stroke:rgb(26, 26, 26);color:rgb(251, 251, 254);stroke-width:0.6px;stroke-linecap:round;stroke-linejoin:round;opacity:1;font-family:&quot;Anthropic Sans&quot;, -apple-system, BlinkMacSystemFont, &quot;Segoe UI&quot;, sans-serif;font-size:16px;font-weight:400;text-anchor:start;dominant-baseline:auto"/>
  <line x1="15" y1="-15" x2="-15" y2="15" stroke-width="0.6" mask="url(#imagine-text-gaps-lp5ate)" style="fill:none;stroke:rgb(26, 26, 26);color:rgb(251, 251, 254);stroke-width:0.6px;stroke-linecap:round;stroke-linejoin:round;opacity:1;font-family:&quot;Anthropic Sans&quot;, -apple-system, BlinkMacSystemFont, &quot;Segoe UI&quot;, sans-serif;font-size:16px;font-weight:400;text-anchor:start;dominant-baseline:auto"/>
  <polygon points="0,-22 -5,-10 5,-10" fill="#1a1a1a" style="fill:rgb(26, 26, 26);stroke:rgb(26, 26, 26);color:rgb(251, 251, 254);stroke-width:1px;stroke-linecap:round;stroke-linejoin:round;opacity:1;font-family:&quot;Anthropic Sans&quot;, -apple-system, BlinkMacSystemFont, &quot;Segoe UI&quot;, sans-serif;font-size:16px;font-weight:400;text-anchor:start;dominant-baseline:auto"/>
  <text x="0" y="-26" text-anchor="middle" font-size="10px" style="fill:rgb(26, 26, 26);stroke:rgb(26, 26, 26);color:rgb(251, 251, 254);stroke-width:1px;stroke-linecap:round;stroke-linejoin:round;opacity:1;font-family:Georgia, serif;font-size:11px;font-weight:400;font-style:italic;text-anchor:middle;dominant-baseline:auto">N</text>
</g>

<!-- Échelle graphique -->
<g transform="translate(60,440)" style="fill:rgb(0, 0, 0);stroke:none;color:rgb(251, 251, 254);stroke-width:1px;stroke-linecap:butt;stroke-linejoin:miter;opacity:1;font-family:&quot;Anthropic Sans&quot;, -apple-system, BlinkMacSystemFont, &quot;Segoe UI&quot;, sans-serif;font-size:16px;font-weight:400;text-anchor:start;dominant-baseline:auto">
  <line x1="0" y1="0" x2="80" y2="0" stroke="#1a1a1a" stroke-width="1.2" style="fill:rgb(0, 0, 0);stroke:rgb(26, 26, 26);color:rgb(251, 251, 254);stroke-width:1.2px;stroke-linecap:butt;stroke-linejoin:miter;opacity:1;font-family:&quot;Anthropic Sans&quot;, -apple-system, BlinkMacSystemFont, &quot;Segoe UI&quot;, sans-serif;font-size:16px;font-weight:400;text-anchor:start;dominant-baseline:auto"/>
  <line x1="0" y1="-5" x2="0" y2="5" stroke="#1a1a1a" stroke-width="1.0" style="fill:rgb(0, 0, 0);stroke:rgb(26, 26, 26);color:rgb(251, 251, 254);stroke-width:1px;stroke-linecap:butt;stroke-linejoin:miter;opacity:1;font-family:&quot;Anthropic Sans&quot;, -apple-system, BlinkMacSystemFont, &quot;Segoe UI&quot;, sans-serif;font-size:16px;font-weight:400;text-anchor:start;dominant-baseline:auto"/>
  <line x1="40" y1="-4" x2="40" y2="4" stroke="#1a1a1a" stroke-width="0.8" style="fill:rgb(0, 0, 0);stroke:rgb(26, 26, 26);color:rgb(251, 251, 254);stroke-width:0.8px;stroke-linecap:butt;stroke-linejoin:miter;opacity:1;font-family:&quot;Anthropic Sans&quot;, -apple-system, BlinkMacSystemFont, &quot;Segoe UI&quot;, sans-serif;font-size:16px;font-weight:400;text-anchor:start;dominant-baseline:auto"/>
  <line x1="80" y1="-5" x2="80" y2="5" stroke="#1a1a1a" stroke-width="1.0" style="fill:rgb(0, 0, 0);stroke:rgb(26, 26, 26);color:rgb(251, 251, 254);stroke-width:1px;stroke-linecap:butt;stroke-linejoin:miter;opacity:1;font-family:&quot;Anthropic Sans&quot;, -apple-system, BlinkMacSystemFont, &quot;Segoe UI&quot;, sans-serif;font-size:16px;font-weight:400;text-anchor:start;dominant-baseline:auto"/>
  <text x="40" y="16" text-anchor="middle" font-size="9px" style="fill:rgb(26, 26, 26);stroke:none;color:rgb(251, 251, 254);stroke-width:1px;stroke-linecap:butt;stroke-linejoin:miter;opacity:1;font-family:Georgia, serif;font-size:11px;font-weight:400;font-style:italic;text-anchor:middle;dominant-baseline:auto">~ 1 journée de marche</text>
</g>

<!-- Titre -->
<text x="340" y="46" text-anchor="middle" font-size="14px" style="fill:rgb(26, 26, 26);stroke:none;color:rgb(251, 251, 254);stroke-width:1px;stroke-linecap:butt;stroke-linejoin:miter;opacity:1;font-family:Georgia, serif;font-size:13px;font-weight:700;text-anchor:middle;dominant-baseline:auto">TERRA INCOGNITA</text>
<text x="340" y="460" text-anchor="middle" font-size="9px" opacity="0.5" style="fill:rgb(26, 26, 26);stroke:none;color:rgb(251, 251, 254);stroke-width:1px;stroke-linecap:butt;stroke-linejoin:miter;opacity:0.5;font-family:Georgia, serif;font-size:11px;font-weight:400;font-style:italic;text-anchor:middle;dominant-baseline:auto">premier kilomètre — monde imaginaire — brouillon de travail</text>

</svg>